HIERARCHY
ROOT Hips
{
	OFFSET -0.179506 -22.333345 2.821913
	CHANNELS 6 Xposition Yposition Zposition Zrotation Yrotation Xrotation 
	JOINT LeftUpLeg
	{
		OFFSET 6.951974 -9.140623 -0.681533
		CHANNELS 3 Zrotation Yrotation Xrotation
		JOINT LeftLeg
		{
			OFFSET 3.427654 -37.519855 -0.449580
			CHANNELS 3 Zrotation Yrotation Xrotation
			JOINT LeftFoot
			{
				OFFSET -1.359570 -39.796059 -4.369333
				CHANNELS 3 Zrotation Yrotation Xrotation
				JOINT LeftToe
				{
					OFFSET 2.635814 -5.579078 11.928840
					CHANNELS 3 Zrotation Yrotation Xrotation
					End Site
					{
						OFFSET 0.000000 0.000000 0.000000
					}
				}
			}
		}
	}
	JOINT RightUpLeg
	{
		OFFSET -6.767048 -9.052170 -0.431982
		CHANNELS 3 Zrotation Yrotation Xrotation
		JOINT RightLeg
		{
			OFFSET -3.829005 -38.256897 -0.885003
			CHANNELS 3 Zrotation Yrotation Xrotation
			JOINT RightFoot
			{
				OFFSET 1.577377 -39.841461 -4.231180
				CHANNELS 3 Zrotation Yrotation Xrotation
				JOINT RightToe
				{
					OFFSET -2.537174 -4.814398 12.334795
					CHANNELS 3 Zrotation Yrotation Xrotation
					End Site
					{
						OFFSET 0.000000 0.000000 0.000000
					}
				}
			}
		}
	}
	JOINT Spine
	{
		OFFSET -0.253288 10.896323 -2.669631
		CHANNELS 3 Zrotation Yrotation Xrotation
		JOINT Spine1
		{
			OFFSET 0.548704 13.518043 0.109247
			CHANNELS 3 Zrotation Yrotation Xrotation
			JOINT Spine2
			{
				OFFSET 0.145701 5.292222 2.542457
				CHANNELS 3 Zrotation Yrotation Xrotation
				JOINT Neck
				{
					OFFSET -0.277840 21.387037 -4.285703
					CHANNELS 3 Zrotation Yrotation Xrotation
					JOINT Head
					{
						OFFSET 0.515184 6.496960 5.134897
						CHANNELS 3 Zrotation Yrotation Xrotation
						End Site
						{
							OFFSET 0.000000 0.000000 0.000000
						}
					}
				}
				JOINT LeftShoulder
				{
					OFFSET 7.884473 12.174932 -3.408961
					CHANNELS 3 Zrotation Yrotation Xrotation
					JOINT LeftArm
					{
						OFFSET 9.097692 3.046888 -0.886815
						CHANNELS 3 Zrotation Yrotation Xrotation
						JOINT LeftForeArm
						{
							OFFSET 25.961220 -1.277207 -2.745643
							CHANNELS 3 Zrotation Yrotation Xrotation
							JOINT LeftHand
							{
								OFFSET 24.923361 0.898606 -0.117091
								CHANNELS 3 Zrotation Yrotation Xrotation
								End Site
								{
									OFFSET 0.000000 0.000000 0.000000
								}
							}
						}
					}
				}
				JOINT RightShoulder
				{
					OFFSET -8.175920 11.883285 -3.861528
					CHANNELS 3 Zrotation Yrotation Xrotation
					JOINT RightArm
					{
						OFFSET -9.601238 3.255117 -0.914307
						CHANNELS 3 Zrotation Yrotation Xrotation
						JOINT RightForeArm
						{
							OFFSET -25.374195 -1.332924 -2.140099
							CHANNELS 3 Zrotation Yrotation Xrotation
							JOINT RightHand
							{
								OFFSET -25.529810 0.777228 -0.555919
								CHANNELS 3 Zrotation Yrotation Xrotation
								End Site
								{
									OFFSET 0.000000 0.000000 0.000000
								}
							}
						}
					}
				}
			}
		}
	}
}
MOTION
Frames: 6
Frame Time: 0.033333
26.155371 69.824959 82.548454 129.520242 -10.353443 92.176279 11.599697 -4.664882 -40.085501 -4.587357 16.371056 110.459748 11.011535 5.758297 -23.927650 nan nan nan 5.955321 3.575796 -5.453020 6.987877 0.829568 45.300944 -10.474455 -1.902666 -35.705743 nan nan nan 0.038798 7.646174 16.396095 0.470785 1.616891 4.068695 -1.197732 5.945315 -4.400940 -2.872389 -3.730814 -9.632268 2.389368 -6.706092 -22.917744 -19.079662 7.549151 2.989050 -50.836556 11.136987 12.841130 -168.754782 -71.202827 -150.431948 1.605575 -16.728982 18.208908 26.236836 18.612204 4.945507 36.579668 43.983325 1.308606 -156.946212 70.837681 -139.474887 -3.273517 19.341729 -4.288407 
27.823139 72.202354 82.802734 128.488231 -10.752946 92.761958 12.389762 -4.609215 -43.392552 -3.800663 16.548667 108.642433 10.787962 6.155972 -24.056565 nan nan nan 4.876779 3.101063 -2.646412 7.237584 2.531737 43.091646 -8.763970 -1.332357 -35.641418 nan nan nan -0.043973 9.078408 15.595289 -0.187662 1.891299 4.352139 -1.725685 6.569990 -4.168280 -2.175099 -4.331757 -9.936025 2.494939 -7.559661 -22.693345 -18.292381 8.868916 3.161383 -49.832697 12.797459 12.846422 -167.333652 -70.371446 -152.235560 0.764570 -16.654640 17.420393 25.282219 18.858520 4.921646 36.217689 45.644842 0.895298 -155.293026 69.438619 -137.598494 -4.167341 19.163168 -4.281521 
29.572420 74.596825 83.190842 127.518136 -11.199089 93.451687 12.968255 -4.587506 -46.348806 -3.112577 16.778624 106.204422 10.761522 6.628496 -24.467621 nan nan nan 3.739844 2.741596 0.127827 7.311703 4.329571 40.583267 -6.812663 -0.705715 -35.025600 nan nan nan -0.374038 10.619950 14.599770 -0.819026 2.236343 4.354549 -2.049466 7.089940 -3.753788 -1.537581 -5.009795 -9.905618 2.886165 -8.513387 -22.636516 -17.741487 10.058421 3.211806 -48.325367 14.474808 12.833655 -165.691869 -69.822977 -153.877641 0.696679 -17.713645 17.208976 24.423558 19.062429 4.997049 35.560134 46.597422 0.199913 -154.687335 67.975329 -136.569359 -5.771198 19.541990 -3.820177 
31.391151 76.963310 83.708992 126.579846 -11.704594 94.168841 13.465741 -4.514239 -48.877029 -2.588858 17.193891 103.147538 11.132797 6.768971 -24.748471 nan nan nan 2.545196 2.528371 2.861656 7.102296 6.247636 37.817865 -5.024535 0.102472 -33.762118 nan nan nan -0.929162 12.182951 13.460551 -1.347401 2.649387 4.909659 -2.495651 7.591929 -3.925267 -0.666935 -5.698331 -10.036125 3.132408 -9.690730 -22.290536 -16.881399 11.047966 3.214150 -46.889588 16.055856 13.170232 -164.674734 -69.724062 -154.798624 1.024647 -19.048874 14.815699 23.523766 18.938859 4.805200 35.506466 47.009736 0.217566 -154.255672 66.550072 -135.146190 -7.868594 19.848816 -3.820672 
33.322109 79.326050 84.311043 125.757420 -12.151719 94.863944 13.942355 -4.410422 -50.915193 -2.043738 17.619379 99.513854 11.717654 6.531585 -24.443632 nan nan nan 1.512653 2.360120 5.687547 6.353181 7.889831 34.695127 -3.252625 0.909967 -31.779128 nan nan nan -1.642646 13.761542 12.055235 -1.692674 3.130023 6.018779 -2.937668 7.967237 -4.583368 0.214948 -6.242621 -9.926056 3.328857 -11.053161 -22.079016 -15.571717 11.686376 3.388790 -45.876209 17.525372 13.412040 -163.972112 -69.830547 -155.234614 0.767771 -19.986629 11.916255 22.426008 18.740458 4.491484 35.931465 46.813958 0.741292 -153.670387 65.040660 -133.384914 -9.422748 20.116318 -4.384415 
35.347588 81.727875 84.987389 125.025773 -12.668314 95.578694 14.223946 -4.478041 -52.495036 -1.452929 18.195352 95.289412 12.069706 6.606081 -23.535508 nan nan nan 0.527521 2.165734 8.491492 5.128175 9.388002 31.321462 -1.184832 1.357411 -28.934757 nan nan nan -2.448436 15.462312 10.317222 -2.014278 3.630915 7.343233 -3.395629 8.181904 -5.175583 1.045369 -7.113883 -9.766045 3.682531 -12.172722 -22.022763 -14.150970 11.934514 4.035985 -45.366106 18.881916 13.310763 -165.217753 -69.862834 -153.533513 1.632021 -18.430863 11.082752 21.426015 18.418319 4.265281 36.395766 46.415973 1.138535 -153.618788 63.487864 -132.384628 -10.805480 19.423788 -4.042226 
